<?xml version="1.0" encoding="iso-8859-1"?>
<!-- Generator: Adobe Illustrator 19.0.0, SVG Export Plug-In . SVG Version: 6.00 Build 0)  -->
<svg version="1.1" id="Layer_1" xmlns="http://www.w3.org/2000/svg" xmlns:xlink="http://www.w3.org/1999/xlink" x="0px" y="0px"
	 viewBox="0 0 512 512" style="enable-background:new 0 0 512 512;" xml:space="preserve">
<g>
	<g>
		<path d="M478.113,0h-83.482c-5.763,0-10.435,4.672-10.435,10.435v313.058c0,5.763,4.672,10.435,10.435,10.435h83.482
			c5.763,0,10.435-4.672,10.435-10.435V10.435C488.548,4.672,483.876,0,478.113,0z M467.678,313.058h-62.612V20.87h62.612V313.058z"
			/>
	</g>
</g>
<g>
	<g>
		<path d="M443.163,44.55c-3.862-3.862-10.852-3.862-14.715,0c-1.982,1.982-3.134,4.693-3.134,7.409
			c0,0.729,0.107,1.355,0.209,2.084c0.21,0.627,0.316,1.254,0.627,1.88c0.316,0.627,0.627,1.254,0.944,1.773
			c0.416,0.627,0.829,1.147,1.354,1.671c1.88,1.875,4.592,3.027,7.302,3.027c2.818,0,5.534-1.151,7.414-3.027
			c1.982-1.982,3.022-4.698,3.022-7.409C446.184,49.243,445.145,46.532,443.163,44.55z"/>
	</g>
</g>
<g>
	<g>
		<path d="M355.29,41.875c-6.532-1.743-161.234-42.144-268.384,0.749c-9.136,4.57-23.456,19.78-17.923,46.352
			c-4.3,3.098-9.808,7.77-14.562,14.114c-8.163,10.878-15.457,28.315-6.494,51.407c-11.189,14.593-22.954,42.409-10.191,73.735
			c-6.23,9.61-17.466,30.725-13.43,53.18c2.956,16.443,13.2,30.135,30.447,40.484c1.626,0.973,3.478,1.597,5.368,1.597h78.865
			c-12.438,36.523-38.261,128.298,7.674,174.232c1.647,1.646,14.824,14.275,29.952,14.275c2.252,0,4.539-0.308,6.848-0.95
			c10.887-3.017,18.439-12.681,22.444-28.701c0.266-1.07,0.363-2.182,0.287-3.283c-0.097-1.371-7.709-137.807,148.942-176.97
			c4.642-1.162,8.193-5.337,8.193-10.127V51.958C363.325,47.23,359.855,43.093,355.29,41.875z M342.455,283.934
			c-156.529,43.158-157.308,177.104-156.87,194.708c-1.916,6.945-4.787,11.495-7.538,12.265c-4.173,1.253-12.369-3.918-16.557-8.046
			c-46.612-46.617,1.727-164.824,2.222-166.011c1.34-3.22,0.96-6.791-0.976-9.69c-1.936-2.904-5.211-4.538-8.696-4.538h-90.92
			c-10.512-7.826-16.495-15.054-18.258-24.705c-3.744-20.504,12.825-41.796,12.974-41.989c2.541-3.174,3.005-7.568,1.187-11.211
			c-17.127-34.251,7.458-59.976,8.479-61.015c3.173-3.174,3.963-8.031,1.957-12.052c-15.593-31.178,12.941-46.942,16.202-48.613
			c4.642-2.323,6.875-7.711,5.233-12.638c-6.741-20.213,3.135-27.613,5.367-29.014c86.937-34.378,212.282-8.728,246.197-1.228
			V283.934z"/>
	</g>
</g>
<g>
</g>
<g>
</g>
<g>
</g>
<g>
</g>
<g>
</g>
<g>
</g>
<g>
</g>
<g>
</g>
<g>
</g>
<g>
</g>
<g>
</g>
<g>
</g>
<g>
</g>
<g>
</g>
<g>
</g>
</svg>
